<?xml version="1.0" encoding="UTF-8"?>
<svg id="Layer_2" data-name="Layer 2" xmlns="http://www.w3.org/2000/svg" xmlns:xlink="http://www.w3.org/1999/xlink" viewBox="0 0 219 263.12">
  <defs>
    <style>
      .cls-1, .cls-2, .cls-3 {
        fill: none;
      }

      .cls-4 {
        clip-path: url(#clippath);
      }

      .cls-7 {
        clip-path: url(#clippath-1);
      }

      .cls-2, .cls-3 {
        stroke: #ffffff;
      }

      .cls-5 {
        fill: #fff;
      }

      .cls-6 {
        fill: #525252;
      }

    </style>
    <clipPath id="clippath">
      <rect className="cls-1" width="219" height="263.12"/>
    </clipPath>
    <clipPath id="clippath-1">
      <rect className="cls-1" width="219" height="263.12"/>
    </clipPath>
  </defs>
  <g className="accumulative" id="Layer_1-2" data-name="Layer 1">
    <line className="cls-3" x1="83.24" y1="36.6" x2="83.24" y2="230.2"/>
    <line className="cls-3" x1="150.17" y1="36.6" x2="150.17" y2="230.2"/>
    <line className="cls-3" x1="48.87" y1="36.69" x2="48.87" y2="230.3"/>
    <line className="cls-3" x1="117.66" y1="36.69" x2="117.66" y2="230.3"/>
    <line className="cls-3" x1="184.59" y1="36.69" x2="184.59" y2="230.3"/>
    <line className="cls-3" x1="23.03" y1="36.5" x2="23.03" y2="230.11"/>
    <line className="cls-3" x1="91.83" y1="36.5" x2="91.83" y2="230.11"/>
    <line className="cls-3" x1="158.75" y1="36.5" x2="158.75" y2="230.11"/>
    <line className="cls-3" x1="57.45" y1="36.6" x2="57.45" y2="230.2"/>
    <line className="cls-3" x1="126.24" y1="36.6" x2="126.24" y2="230.2"/>
    <line className="cls-3" x1="193.17" y1="36.6" x2="193.17" y2="230.2"/>
    <line className="cls-3" x1="31.61" y1="36.6" x2="31.61" y2="230.2"/>
    <line className="cls-3" x1="100.41" y1="36.6" x2="100.41" y2="230.2"/>
    <line className="cls-3" x1="167.34" y1="36.6" x2="167.34" y2="230.2"/>
    <line className="cls-3" x1="66.03" y1="36.69" x2="66.03" y2="230.3"/>
    <line className="cls-3" x1="134.83" y1="36.69" x2="134.83" y2="230.3"/>
    <line className="cls-3" x1="201.76" y1="36.69" x2="201.76" y2="230.3"/>
    <line className="cls-3" x1="40.2" y1="36.5" x2="40.2" y2="230.11"/>
    <line className="cls-3" x1="108.99" y1="36.5" x2="108.99" y2="230.11"/>
    <line className="cls-3" x1="175.92" y1="36.5" x2="175.92" y2="230.11"/>
    <line className="cls-3" x1="74.62" y1="36.6" x2="74.62" y2="230.2"/>
    <line className="cls-3" x1="143.41" y1="36.6" x2="143.41" y2="230.2"/>
    <line className="cls-3" x1="210.34" y1="36.6" x2="210.34" y2="230.2"/>
    <line className="cls-3" x1="16.48" y1="50.94" x2="202.52" y2="50.94"/>
    <line className="cls-3" x1="21.8" y1="73.69" x2="207.84" y2="73.69"/>
    <line className="cls-3" x1="35.2" y1="96.62" x2="197.34" y2="96.62"/>
    <g className="cls-4">
      <path className="cls-6" d="m14.42,58.12c4.32,0,7.82-3.33,7.82-7.44s-3.5-7.44-7.82-7.44-7.82,3.33-7.82,7.44,3.5,7.44,7.82,7.44"/>
      <path className="cls-3" d="m14.42,58.12c4.32,0,7.82-3.33,7.82-7.44s-3.5-7.44-7.82-7.44-7.82,3.33-7.82,7.44,3.5,7.44,7.82,7.44Z"/>
      <path className="cls-6" d="m22.24,81.38c4.32,0,7.82-3.33,7.82-7.44s-3.5-7.44-7.82-7.44-7.82,3.33-7.82,7.44,3.5,7.44,7.82,7.44"/>
      <path className="cls-3" d="m22.24,81.38c4.32,0,7.82-3.33,7.82-7.44s-3.5-7.44-7.82-7.44-7.82,3.33-7.82,7.44,3.5,7.44,7.82,7.44Z"/>
      <path className="cls-6" d="m34.49,104c4.32,0,7.82-3.33,7.82-7.44s-3.5-7.44-7.82-7.44-7.82,3.33-7.82,7.44,3.5,7.44,7.82,7.44"/>
      <path className="cls-3" d="m34.49,104c4.32,0,7.82-3.33,7.82-7.44s-3.5-7.44-7.82-7.44-7.82,3.33-7.82,7.44,3.5,7.44,7.82,7.44Z"/>
      <path className="cls-5" d="m48.07,81.38c4.32,0,7.82-3.33,7.82-7.44s-3.5-7.44-7.82-7.44-7.82,3.33-7.82,7.44,3.5,7.44,7.82,7.44"/>
      <path className="cls-2" d="m48.07,81.38c4.32,0,7.82-3.33,7.82-7.44s-3.5-7.44-7.82-7.44-7.82,3.33-7.82,7.44,3.5,7.44,7.82,7.44Z"/>
      <path className="cls-6" d="m63.52,104c4.32,0,7.82-3.33,7.82-7.44s-3.5-7.44-7.82-7.44-7.82,3.33-7.82,7.44,3.5,7.44,7.82,7.44"/>
      <path className="cls-3" d="m63.52,104c4.32,0,7.82-3.33,7.82-7.44s-3.5-7.44-7.82-7.44-7.82,3.33-7.82,7.44,3.5,7.44,7.82,7.44Z"/>
      <path className="cls-6" d="m73.91,81.38c4.32,0,7.82-3.33,7.82-7.44s-3.5-7.44-7.82-7.44-7.82,3.33-7.82,7.44,3.5,7.44,7.82,7.44"/>
      <path className="cls-3" d="m73.91,81.38c4.32,0,7.82-3.33,7.82-7.44s-3.5-7.44-7.82-7.44-7.82,3.33-7.82,7.44,3.5,7.44,7.82,7.44Z"/>
      <path className="cls-6" d="m90.23,104c4.32,0,7.82-3.33,7.82-7.44s-3.5-7.44-7.82-7.44-7.82,3.33-7.82,7.44,3.5,7.44,7.82,7.44"/>
      <path className="cls-3" d="m90.23,104c4.32,0,7.82-3.33,7.82-7.44s-3.5-7.44-7.82-7.44-7.82,3.33-7.82,7.44,3.5,7.44,7.82,7.44Z"/>
      <path className="cls-6" d="m99.75,81.38c4.32,0,7.82-3.33,7.82-7.44s-3.5-7.44-7.82-7.44-7.82,3.33-7.82,7.44,3.5,7.44,7.82,7.44"/>
      <path className="cls-3" d="m99.75,81.38c4.32,0,7.82-3.33,7.82-7.44s-3.5-7.44-7.82-7.44-7.82,3.33-7.82,7.44,3.5,7.44,7.82,7.44Z"/>
      <path className="cls-6" d="m116.95,104c4.32,0,7.82-3.33,7.82-7.44s-3.5-7.44-7.82-7.44-7.82,3.33-7.82,7.44,3.5,7.44,7.82,7.44"/>
      <path className="cls-3" d="m116.95,104c4.32,0,7.82-3.33,7.82-7.44s-3.5-7.44-7.82-7.44-7.82,3.33-7.82,7.44,3.5,7.44,7.82,7.44Z"/>
      <path className="cls-6" d="m143.66,104c4.32,0,7.82-3.33,7.82-7.44s-3.5-7.44-7.82-7.44-7.82,3.33-7.82,7.44,3.5,7.44,7.82,7.44"/>
      <path className="cls-3" d="m143.66,104c4.32,0,7.82-3.33,7.82-7.44s-3.5-7.44-7.82-7.44-7.82,3.33-7.82,7.44,3.5,7.44,7.82,7.44Z"/>
      <path className="cls-6" d="m170.38,104c4.32,0,7.82-3.33,7.82-7.44s-3.5-7.44-7.82-7.44-7.82,3.33-7.82,7.44,3.5,7.44,7.82,7.44"/>
      <path className="cls-3" d="m170.38,104c4.32,0,7.82-3.33,7.82-7.44s-3.5-7.44-7.82-7.44-7.82,3.33-7.82,7.44,3.5,7.44,7.82,7.44Z"/>
      <path className="cls-5" d="m197.09,104c4.32,0,7.82-3.33,7.82-7.44s-3.5-7.44-7.82-7.44-7.82,3.33-7.82,7.44,3.5,7.44,7.82,7.44"/>
      <path className="cls-2" d="m197.09,104c4.32,0,7.82-3.33,7.82-7.44s-3.5-7.44-7.82-7.44-7.82,3.33-7.82,7.44,3.5,7.44,7.82,7.44Z"/>
      <path className="cls-6" d="m125.59,81.38c4.32,0,7.82-3.33,7.82-7.44s-3.5-7.44-7.82-7.44-7.82,3.33-7.82,7.44,3.5,7.44,7.82,7.44"/>
      <path className="cls-3" d="m125.59,81.38c4.32,0,7.82-3.33,7.82-7.44s-3.5-7.44-7.82-7.44-7.82,3.33-7.82,7.44,3.5,7.44,7.82,7.44Z"/>
      <path className="cls-6" d="m151.42,81.38c4.32,0,7.82-3.33,7.82-7.44s-3.5-7.44-7.82-7.44-7.82,3.33-7.82,7.44,3.5,7.44,7.82,7.44"/>
      <path className="cls-3" d="m151.42,81.38c4.32,0,7.82-3.33,7.82-7.44s-3.5-7.44-7.82-7.44-7.82,3.33-7.82,7.44,3.5,7.44,7.82,7.44Z"/>
      <path className="cls-6" d="m177.26,81.38c4.32,0,7.82-3.33,7.82-7.44s-3.5-7.44-7.82-7.44-7.82,3.33-7.82,7.44,3.5,7.44,7.82,7.44"/>
      <path className="cls-3" d="m177.26,81.38c4.32,0,7.82-3.33,7.82-7.44s-3.5-7.44-7.82-7.44-7.82,3.33-7.82,7.44,3.5,7.44,7.82,7.44Z"/>
      <path className="cls-6" d="m203.1,81.38c4.32,0,7.82-3.33,7.82-7.44s-3.5-7.44-7.82-7.44-7.82,3.33-7.82,7.44,3.5,7.44,7.82,7.44"/>
      <path className="cls-3" d="m203.1,81.38c4.32,0,7.82-3.33,7.82-7.44s-3.5-7.44-7.82-7.44-7.82,3.33-7.82,7.44,3.5,7.44,7.82,7.44Z"/>
      <path className="cls-6" d="m40.96,58.12c4.32,0,7.82-3.33,7.82-7.44s-3.5-7.44-7.82-7.44-7.82,3.33-7.82,7.44,3.5,7.44,7.82,7.44"/>
      <path className="cls-3" d="m40.96,58.12c4.32,0,7.82-3.33,7.82-7.44s-3.5-7.44-7.82-7.44-7.82,3.33-7.82,7.44,3.5,7.44,7.82,7.44Z"/>
      <path className="cls-6" d="m67.5,58.12c4.32,0,7.82-3.33,7.82-7.44s-3.5-7.44-7.82-7.44-7.82,3.33-7.82,7.44,3.5,7.44,7.82,7.44"/>
      <path className="cls-3" d="m67.5,58.12c4.32,0,7.82-3.33,7.82-7.44s-3.5-7.44-7.82-7.44-7.82,3.33-7.82,7.44,3.5,7.44,7.82,7.44Z"/>
      <path className="cls-6" d="m94.04,58.12c4.32,0,7.82-3.33,7.82-7.44s-3.5-7.44-7.82-7.44-7.82,3.33-7.82,7.44,3.5,7.44,7.82,7.44"/>
      <path className="cls-3" d="m94.04,58.12c4.32,0,7.82-3.33,7.82-7.44s-3.5-7.44-7.82-7.44-7.82,3.33-7.82,7.44,3.5,7.44,7.82,7.44Z"/>
      <path className="cls-5" d="m122.9,58.12c4.32,0,7.82-3.33,7.82-7.44s-3.5-7.44-7.82-7.44-7.82,3.33-7.82,7.44,3.5,7.44,7.82,7.44"/>
      <path className="cls-2" d="m122.9,58.12c4.32,0,7.82-3.33,7.82-7.44s-3.5-7.44-7.82-7.44-7.82,3.33-7.82,7.44,3.5,7.44,7.82,7.44Z"/>
      <path className="cls-6" d="m147.12,58.12c4.32,0,7.82-3.33,7.82-7.44s-3.5-7.44-7.82-7.44-7.82,3.33-7.82,7.44,3.5,7.44,7.82,7.44"/>
      <path className="cls-3" d="m147.12,58.12c4.32,0,7.82-3.33,7.82-7.44s-3.5-7.44-7.82-7.44-7.82,3.33-7.82,7.44,3.5,7.44,7.82,7.44Z"/>
      <path className="cls-6" d="m173.66,58.12c4.32,0,7.82-3.33,7.82-7.44s-3.5-7.44-7.82-7.44-7.82,3.33-7.82,7.44,3.5,7.44,7.82,7.44"/>
      <path className="cls-3" d="m173.66,58.12c4.32,0,7.82-3.33,7.82-7.44s-3.5-7.44-7.82-7.44-7.82,3.33-7.82,7.44,3.5,7.44,7.82,7.44Z"/>
      <path className="cls-6" d="m200.2,58.12c4.32,0,7.82-3.33,7.82-7.44s-3.5-7.44-7.82-7.44-7.82,3.33-7.82,7.44,3.5,7.44,7.82,7.44"/>
      <path className="cls-3" d="m200.2,58.12c4.32,0,7.82-3.33,7.82-7.44s-3.5-7.44-7.82-7.44-7.82,3.33-7.82,7.44,3.5,7.44,7.82,7.44Z"/>
    </g>
    <line className="cls-3" x1="28.48" y1="27.06" x2="186.88" y2="27.06"/>
    <g className="cls-7">
      <path className="cls-6" d="m30.06,34c4.32,0,7.82-3.33,7.82-7.44s-3.5-7.44-7.82-7.44-7.82,3.33-7.82,7.44,3.5,7.44,7.82,7.44"/>
      <path className="cls-3" d="m30.06,34c4.32,0,7.82-3.33,7.82-7.44s-3.5-7.44-7.82-7.44-7.82,3.33-7.82,7.44,3.5,7.44,7.82,7.44Z"/>
      <path className="cls-5" d="m58.12,34c4.32,0,7.82-3.33,7.82-7.44s-3.5-7.44-7.82-7.44-7.82,3.33-7.82,7.44,3.5,7.44,7.82,7.44"/>
      <path className="cls-2" d="m58.12,34c4.32,0,7.82-3.33,7.82-7.44s-3.5-7.44-7.82-7.44-7.82,3.33-7.82,7.44,3.5,7.44,7.82,7.44Z"/>
      <path className="cls-6" d="m81.56,34c4.32,0,7.82-3.33,7.82-7.44s-3.5-7.44-7.82-7.44-7.82,3.33-7.82,7.44,3.5,7.44,7.82,7.44"/>
      <path className="cls-3" d="m81.56,34c4.32,0,7.82-3.33,7.82-7.44s-3.5-7.44-7.82-7.44-7.82,3.33-7.82,7.44,3.5,7.44,7.82,7.44Z"/>
      <path className="cls-6" d="m107.31,34c4.32,0,7.82-3.33,7.82-7.44s-3.5-7.44-7.82-7.44-7.82,3.33-7.82,7.44,3.5,7.44,7.82,7.44"/>
      <path className="cls-3" d="m107.31,34c4.32,0,7.82-3.33,7.82-7.44s-3.5-7.44-7.82-7.44-7.82,3.33-7.82,7.44,3.5,7.44,7.82,7.44Z"/>
      <path className="cls-5" d="m135.38,34c4.32,0,7.82-3.33,7.82-7.44s-3.5-7.44-7.82-7.44-7.82,3.33-7.82,7.44,3.5,7.44,7.82,7.44"/>
      <path className="cls-2" d="m135.38,34c4.32,0,7.82-3.33,7.82-7.44s-3.5-7.44-7.82-7.44-7.82,3.33-7.82,7.44,3.5,7.44,7.82,7.44Z"/>
      <path className="cls-6" d="m158.81,34c4.32,0,7.82-3.33,7.82-7.44s-3.5-7.44-7.82-7.44-7.82,3.33-7.82,7.44,3.5,7.44,7.82,7.44"/>
      <path className="cls-3" d="m158.81,34c4.32,0,7.82-3.33,7.82-7.44s-3.5-7.44-7.82-7.44-7.82,3.33-7.82,7.44,3.5,7.44,7.82,7.44Z"/>
      <path className="cls-6" d="m184.56,34c4.32,0,7.82-3.33,7.82-7.44s-3.5-7.44-7.82-7.44-7.82,3.33-7.82,7.44,3.5,7.44,7.82,7.44"/>
      <path className="cls-3" d="m184.56,34c4.32,0,7.82-3.33,7.82-7.44s-3.5-7.44-7.82-7.44-7.82,3.33-7.82,7.44,3.5,7.44,7.82,7.44Z"/>
      <rect className="cls-3" x=".5" y=".5" width="218" height="262.12"/>
    </g>
  </g>
</svg>