<svg width="136" height="100" viewBox="0 0 136 100" fill="white" xmlns="http://www.w3.org/2000/svg">
<path d="M2.076 87.716H1.428V86.996H3.54C5.148 86.996 6.096 87.704 6.096 91.004C6.096 92.768 6 95 3.564 95H1.428V94.28H2.076V87.716ZM2.88 87.716V94.28H3.54C4.512 94.28 5.256 94.028 5.256 91.004C5.256 87.956 4.44 87.716 3.732 87.716H2.88ZM9.07931 95V86.996H12.9793V87.716H9.88331V90.356H12.4393V91.076H9.88331V94.28H12.9793V95H9.07931ZM19.9226 88.7L19.1426 88.82C19.0106 88.232 18.7226 87.644 18.0386 87.644C17.2826 87.644 16.9826 88.256 16.9826 88.928C16.9826 89.576 17.1146 89.78 18.3746 90.536C19.3586 91.124 20.0306 91.616 20.0306 92.852C20.0306 94.112 19.3586 95.108 18.0146 95.108C16.5986 95.108 16.0826 94.172 15.9626 92.9L16.7666 92.792C16.8746 93.68 17.0666 94.352 18.0386 94.352C18.7346 94.352 19.2266 93.884 19.2266 92.924C19.2266 91.868 18.5426 91.508 17.7146 91.028C16.7906 90.488 16.1786 90.104 16.1786 88.928C16.1786 87.848 16.8986 86.888 18.0386 86.888C19.1666 86.888 19.7186 87.692 19.9226 88.7ZM24.7779 94.28V87.716H23.6979V86.996H26.6739V87.716H25.5819V94.28H26.6739V95H23.6979V94.28H24.7779ZM34.4933 90.848V94.412C33.9773 94.832 33.3053 95.108 32.6333 95.108C30.5693 95.108 30.2093 92.612 30.2093 91.016C30.2093 89.516 30.5573 86.888 32.5493 86.888C33.4493 86.888 34.1093 87.44 34.5533 88.172L33.8453 88.604C33.5573 88.088 33.1373 87.644 32.5013 87.644C31.1693 87.644 31.0493 90.092 31.0493 91.04C31.0493 93.788 31.8533 94.352 32.6453 94.352C32.9813 94.352 33.4133 94.208 33.6893 93.98V91.568H32.1893V90.848H34.4933ZM37.4886 95V86.996H38.4966L40.8726 93.728L40.8966 93.704L40.8606 91.916V86.996H41.6646V95H40.6566L38.2806 88.256L38.2566 88.28L38.2926 90.092V95H37.4886Z"/>
<path d="M36.216 9V1.716H34.488V0.995999H38.712V1.716H37.02V9H36.216ZM42.0793 9V0.995999H45.9793V1.716H42.8833V4.356H45.4393V5.076H42.8833V8.28H45.9793V9H42.0793ZM52.5746 7.344L53.2346 7.8C52.7666 8.556 52.0706 9.108 51.1586 9.108C49.0706 9.108 48.7586 6.588 48.7586 5.004C48.7586 3.408 49.0706 0.887999 51.1586 0.887999C52.0706 0.887999 52.6946 1.416 53.1146 2.184L52.4306 2.592C52.1786 2.088 51.7706 1.644 51.1586 1.644C49.6946 1.644 49.5986 3.948 49.5986 5.004C49.5986 6.048 49.6946 8.352 51.1586 8.352C51.7826 8.352 52.2746 7.836 52.5746 7.344ZM56.1459 9V0.995999H56.9499V4.356H59.4219V0.995999H60.2259V9H59.4219V5.076H56.9499V9H56.1459ZM63.2933 9V0.995999H64.3013L66.6773 7.728L66.7013 7.704L66.6653 5.916V0.995999H67.4693V9H66.4613L64.0853 2.256L64.0613 2.28L64.0973 4.092V9H63.2933ZM72.5766 0.887999C74.8326 0.887999 74.7966 3.936 74.7966 4.992C74.7966 6 74.8326 9.108 72.5766 9.108C70.2966 9.108 70.3566 6.024 70.3566 4.992C70.3566 3.672 70.4406 0.887999 72.5766 0.887999ZM72.5766 1.644C71.1606 1.644 71.1966 3.816 71.1966 4.992C71.1966 7.152 71.4486 8.352 72.5766 8.352C73.9686 8.352 73.9566 6.384 73.9566 4.992C73.9566 3.48 73.9926 1.644 72.5766 1.644ZM78.1999 9V0.995999H79.0039V8.28H82.2919V9H78.1999ZM86.9672 0.887999C89.2232 0.887999 89.1872 3.936 89.1872 4.992C89.1872 6 89.2232 9.108 86.9672 9.108C84.6872 9.108 84.7472 6.024 84.7472 4.992C84.7472 3.672 84.8312 0.887999 86.9672 0.887999ZM86.9672 1.644C85.5512 1.644 85.5872 3.816 85.5872 4.992C85.5872 7.152 85.8392 8.352 86.9672 8.352C88.3592 8.352 88.3472 6.384 88.3472 4.992C88.3472 3.48 88.3832 1.644 86.9672 1.644ZM96.2745 4.848V8.412C95.7585 8.832 95.0865 9.108 94.4145 9.108C92.3505 9.108 91.9905 6.612 91.9905 5.016C91.9905 3.516 92.3385 0.887999 94.3305 0.887999C95.2305 0.887999 95.8905 1.44 96.3345 2.172L95.6265 2.604C95.3385 2.088 94.9185 1.644 94.2825 1.644C92.9505 1.644 92.8305 4.092 92.8305 5.04C92.8305 7.788 93.6345 8.352 94.4265 8.352C94.7625 8.352 95.1945 8.208 95.4705 7.98V5.568H93.9705V4.848H96.2745ZM101.358 4.908L103.086 0.84L103.83 1.14L101.754 5.844V9H100.95V5.844L98.8858 1.14L99.6298 0.84L101.358 4.908Z" />
<path d="M79.56 95V86.996H80.364V90.356H82.836V86.996H83.64V95H82.836V91.076H80.364V95H79.56ZM86.8393 86.996H87.6433V92.816C87.6433 93.608 87.7993 94.352 88.7953 94.352C89.7913 94.352 89.9593 93.596 89.9593 92.816V86.996H90.7633V93.056C90.7633 94.304 89.9833 95.108 88.7953 95.108C87.5833 95.108 86.8393 94.28 86.8393 93.092V86.996ZM95.9906 90.392L97.1426 86.996H98.1506L98.3906 95H97.5386L97.3826 88.328H97.3586L95.9906 92.348L94.6226 88.328H94.5986L94.4426 95H93.6026L93.8426 86.996H94.8386L95.9906 90.392ZM104.278 92.528H102.094L101.47 95.156L100.678 94.94L102.706 86.996H103.666L105.694 94.94L104.902 95.156L104.278 92.528ZM104.086 91.808L103.198 88.064H103.174L102.286 91.808H104.086ZM108.293 95V86.996H109.301L111.677 93.728L111.701 93.704L111.665 91.916V86.996H112.469V95H111.461L109.085 88.256L109.061 88.28L109.097 90.092V95H108.293ZM117.169 94.28V87.716H116.089V86.996H119.065V87.716H117.973V94.28H119.065V95H116.089V94.28H117.169ZM124.388 95V87.716H122.66V86.996H126.884V87.716H125.192V95H124.388ZM131.967 90.908L133.695 86.84L134.439 87.14L132.363 91.844V95H131.559V91.844L129.495 87.14L130.239 86.84L131.967 90.908Z" />
</svg>
