<?xml version="1.0" encoding="UTF-8"?>
<svg id="Layer_2" data-name="Layer 2" xmlns="http://www.w3.org/2000/svg" xmlns:xlink="http://www.w3.org/1999/xlink" viewBox="0 0 268 263.13">
  <defs>
    <style>
      .cls-1, .cls-2 {
        fill: none;
      }

      .cls-3 {
        clip-path: url(#clippath);
      }

      .cls-4 {
        fill: #fff;
        stroke: #525252;
      }

      .cls-6 {
        clip-path: url(#clippath-1);
      }

    </style>
    <clipPath id="clippath">
      <rect className="cls-1" width="268" height="263.13"/>
    </clipPath>
    <clipPath id="clippath-1">
      <rect className="cls-1" width="268" height="263.13"/>
    </clipPath>
  </defs>
  <g className="linear" id="Layer_1-2" data-name="Layer 1">
    <g className="cls-3">
      <line className="cls-2" x1=".73" y1="24.78" x2="267.27" y2="24.78"/>
      <polyline className="cls-2" points="4.74 28.5 .73 24.78 4.74 21.05"/>
      <polyline className="cls-2" points="263.26 21.05 267.27 24.78 263.26 28.5"/>
    </g>
    <line className="cls-2" x1="36.85" y1="36.6" x2="36.85" y2="230.2"/>
    <line className="cls-2" x1="105.65" y1="36.6" x2="105.65" y2="230.2"/>
    <line className="cls-2" x1="172.58" y1="36.6" x2="172.58" y2="230.2"/>
    <line className="cls-2" x1="71.27" y1="36.69" x2="71.27" y2="230.3"/>
    <line className="cls-2" x1="140.07" y1="36.69" x2="140.07" y2="230.3"/>
    <line className="cls-2" x1="207" y1="36.69" x2="207" y2="230.3"/>
    <line className="cls-2" x1="45.44" y1="36.5" x2="45.44" y2="230.11"/>
    <line className="cls-2" x1="114.23" y1="36.5" x2="114.23" y2="230.11"/>
    <line className="cls-2" x1="181.16" y1="36.5" x2="181.16" y2="230.11"/>
    <line className="cls-2" x1="79.86" y1="36.6" x2="79.86" y2="230.2"/>
    <line className="cls-2" x1="148.65" y1="36.6" x2="148.65" y2="230.2"/>
    <line className="cls-2" x1="215.58" y1="36.6" x2="215.58" y2="230.2"/>
    <line className="cls-2" x1="54.02" y1="36.6" x2="54.02" y2="230.2"/>
    <line className="cls-2" x1="122.81" y1="36.6" x2="122.81" y2="230.2"/>
    <line className="cls-2" x1="189.74" y1="36.6" x2="189.74" y2="230.2"/>
    <line className="cls-2" x1="88.44" y1="36.69" x2="88.44" y2="230.3"/>
    <line className="cls-2" x1="157.23" y1="36.69" x2="157.23" y2="230.3"/>
    <line className="cls-2" x1="224.16" y1="36.69" x2="224.16" y2="230.3"/>
    <line className="cls-2" x1="62.6" y1="36.5" x2="62.6" y2="230.11"/>
    <line className="cls-2" x1="131.4" y1="36.5" x2="131.4" y2="230.11"/>
    <line className="cls-2" x1="198.33" y1="36.5" x2="198.33" y2="230.11"/>
    <line className="cls-2" x1="97.02" y1="36.6" x2="97.02" y2="230.2"/>
    <line className="cls-2" x1="165.82" y1="36.6" x2="165.82" y2="230.2"/>
    <line className="cls-2" x1="232.75" y1="36.6" x2="232.75" y2="230.2"/>
    <g className="cls-6">
      <path className="cls-4" d="m225.56,24.38c0,4.32,3.33,7.82,7.44,7.82s7.44-3.5,7.44-7.82-3.33-7.82-7.44-7.82-7.44,3.5-7.44,7.82"/>
      <path fill="#525252" d="m210.18,40.53c0,4.32,3.33,7.82,7.44,7.82s7.44-3.5,7.44-7.82-3.33-7.82-7.44-7.82-7.44,3.5-7.44,7.82"/>
      <path className="cls-2" d="m210.18,40.53c0,4.32,3.33,7.82,7.44,7.82s7.44-3.5,7.44-7.82-3.33-7.82-7.44-7.82-7.44,3.5-7.44,7.82Z"/>
      <path fill="#525252" d="m142.81,64.49c0,4.32,3.33,7.82,7.44,7.82s7.44-3.5,7.44-7.82-3.33-7.82-7.44-7.82-7.44,3.5-7.44,7.82"/>
      <path className="cls-2" d="m142.81,64.49c0,4.32,3.33,7.82,7.44,7.82s7.44-3.5,7.44-7.82-3.33-7.82-7.44-7.82-7.44,3.5-7.44,7.82Z"/>
      <path fill="#525252" d="m182.93,85.12c0,4.32,3.33,7.82,7.44,7.82s7.44-3.5,7.44-7.82-3.33-7.82-7.44-7.82-7.44,3.5-7.44,7.82"/>
      <path className="cls-2" d="m182.93,85.12c0,4.32,3.33,7.82,7.44,7.82s7.44-3.5,7.44-7.82-3.33-7.82-7.44-7.82-7.44,3.5-7.44,7.82Z"/>
      <path fill="#525252" d="m150.5,104.25c0,4.32,3.33,7.82,7.44,7.82s7.44-3.5,7.44-7.82-3.33-7.82-7.44-7.82-7.44,3.5-7.44,7.82"/>
      <path className="cls-2" d="m150.5,104.25c0,4.32,3.33,7.82,7.44,7.82s7.44-3.5,7.44-7.82-3.33-7.82-7.44-7.82-7.44,3.5-7.44,7.82Z"/>
      <path fill="#525252" d="m87.06,128.38c0,4.32,3.33,7.82,7.44,7.82s7.44-3.5,7.44-7.82-3.33-7.82-7.44-7.82-7.44,3.5-7.44,7.82"/>
      <path className="cls-2" d="m87.06,128.38c0,4.32,3.33,7.82,7.44,7.82s7.44-3.5,7.44-7.82-3.33-7.82-7.44-7.82-7.44,3.5-7.44,7.82Z"/>
      <rect className="cls-2" x="25.22" y=".5" width="218" height="262.13"/>
    </g>
    <line className="cls-2" x1="257.33" y1="28.18" x2="257.33" y2="43.33"/>
    <polyline className="cls-2" points="261.06 39.32 257.33 43.33 253.61 39.32"/>
    <line className="cls-2" x1="257.33" y1="48.48" x2="257.33" y2="63.62"/>
    <polyline className="cls-2" points="261.06 59.62 257.33 63.62 253.61 59.62"/>
    <line className="cls-2" x1="257.33" y1="69.24" x2="257.33" y2="84.38"/>
    <polyline className="cls-2" points="261.06 80.38 257.33 84.38 253.61 80.38"/>
  </g>
</svg>